<?xml version="1.0" encoding="UTF-8"?>
<svg id="a" xmlns="http://www.w3.org/2000/svg" version="1.1" viewBox="0 0 480 270">
  <!-- Generator: Adobe Illustrator 30.0.0, SVG Export Plug-In . SVG Version: 2.1.1 Build 123)  -->
  <defs>
    <style>
      .st0, .st1 {
        fill: none;
      }

      .st2 {
        fill: #f2a29b;
      }

      .st3 {
        fill: #0f3d59;
      }

      .st1 {
        stroke: #0f3d59;
        stroke-linecap: round;
        stroke-linejoin: round;
        stroke-width: 7.4px;
      }

      .st4 {
        fill: #f2a39b;
      }
    </style>
  </defs>
  <rect class="st0" width="480" height="270"/>
  <g>
    <path class="st4" d="M231.8,112.2c9.3,9.3,9.3,24.4,9.3,24.4,0,0-15.1,0-24.4-9.3s-9.3-24.4-9.3-24.4c0,0,15.1,0,24.4,9.3Z"/>
    <path class="st4" d="M250,112.2c-9.3,9.3-9.3,24.4-9.3,24.4,0,0,15.1,0,24.4-9.3s9.3-24.4,9.3-24.4c0,0-15.1,0-24.4,9.3Z"/>
    <path class="st4" d="M231.8,145.4c9.3,9.3,9.3,24.4,9.3,24.4,0,0-15.1,0-24.4-9.3-9.3-9.3-9.3-24.4-9.3-24.4,0,0,15.1,0,24.4,9.3Z"/>
    <path class="st4" d="M250,145.4c-9.3,9.3-9.3,24.4-9.3,24.4,0,0,15.1,0,24.4-9.3,9.3-9.3,9.3-24.4,9.3-24.4,0,0-15.1,0-24.4,9.3Z"/>
    <path class="st4" d="M231.8,178.6c9.3,9.3,9.3,24.4,9.3,24.4,0,0-15.1,0-24.4-9.3s-9.3-24.4-9.3-24.4c0,0,15.1,0,24.4,9.3Z"/>
    <path class="st4" d="M250,178.6c-9.3,9.3-9.3,24.4-9.3,24.4,0,0,15.1,0,24.4-9.3s9.3-24.4,9.3-24.4c0,0-15.1,0-24.4,9.3Z"/>
    <path class="st4" d="M231.8,211.8c9.3,9.3,9.3,24.4,9.3,24.4,0,0-15.1,0-24.4-9.3s-9.3-24.4-9.3-24.4c0,0,15.1,0,24.4,9.3Z"/>
    <path class="st4" d="M250,211.8c-9.3,9.3-9.3,24.4-9.3,24.4,0,0,15.1,0,24.4-9.3s9.3-24.4,9.3-24.4c0,0-15.1,0-24.4,9.3Z"/>
    <circle class="st3" cx="220.1" cy="58.6" r="8.3"/>
    <circle class="st3" cx="261.6" cy="58.6" r="8.3"/>
    <circle class="st3" cx="240.9" cy="50.3" r="8.3"/>
    <line class="st1" x1="240.9" y1="245.3" x2="240.9" y2="89.7"/>
    <circle class="st2" cx="240.9" cy="81.4" r="16.6" transform="translate(-1.6 4.9) rotate(-1.2)"/>
  </g>
</svg>