<?xml version="1.0" encoding="UTF-8"?>
<svg id="a" xmlns="http://www.w3.org/2000/svg" version="1.1" viewBox="0 0 480 270">
  <!-- Generator: Adobe Illustrator 30.0.0, SVG Export Plug-In . SVG Version: 2.1.1 Build 123)  -->
  <defs>
    <style>
      .st0 {
        fill: none;
      }

      .st1 {
        fill: #f2a29b;
      }

      .st2 {
        fill: #0f3d59;
      }

      .st3 {
        fill: #e47725;
      }
    </style>
  </defs>
  <rect class="st0" width="480" height="270"/>
  <g>
    <path class="st3" d="M221.2,151.6c19.2,19.2,19.2,50.5,19.2,50.5,0,0-31.3,0-50.5-19.2-19.2-19.2-19.2-50.5-19.2-50.5,0,0,31.3,0,50.5,19.2Z"/>
    <path class="st3" d="M258.8,151.6c-19.2,19.2-19.2,50.5-19.2,50.5,0,0,31.3,0,50.5-19.2s19.2-50.5,19.2-50.5c0,0-31.3,0-50.5,19.2Z"/>
    <path class="st3" d="M240,229.2c-2.1,0-3.9-1.7-3.9-3.9v-96.8c0-2.1,1.7-3.9,3.9-3.9s3.9,1.7,3.9,3.9v96.8c0,2.1-1.7,3.9-3.9,3.9Z"/>
    <circle class="st1" cx="240" cy="97.5" r="42.9"/>
    <circle class="st2" cx="240" cy="97.5" r="11.6"/>
  </g>
</svg>