<?xml version="1.0" encoding="UTF-8"?>
<svg id="a" data-name="Layer 1" xmlns="http://www.w3.org/2000/svg" width="480" height="270" viewBox="0 0 480 270">
  <defs>
    <style>
      .b, .c {
        fill: none;
      }

      .d {
        fill: #f2a29b;
      }

      .e {
        fill: #0f3d59;
      }

      .c {
        stroke: #0f3d59;
        stroke-linecap: round;
        stroke-linejoin: round;
        stroke-width: 7.4388px;
      }

      .f {
        fill: #fadedc;
      }

      .g {
        fill: #f9c1ab;
      }
    </style>
  </defs>
  <rect class="b" width="480" height="270"/>
  <g>
    <path class="f" d="M231.8078,112.2409c9.289,9.289,9.2506,24.3878,9.2506,24.3878,0,0-15.0989.0385-24.3879-9.2505s-9.2505-24.3879-9.2505-24.3879c0,0,15.0988-.0384,24.3878,9.2506Z"/>
    <path class="g" d="M249.9709,112.2409c-9.289,9.289-9.2506,24.3878-9.2506,24.3878,0,0,15.0989.0385,24.3879-9.2505,9.289-9.289,9.2505-24.3879,9.2505-24.3879,0,0-15.0988-.0384-24.3878,9.2506Z"/>
    <path class="f" d="M231.8078,145.4369c9.289,9.289,9.2506,24.3879,9.2506,24.3879,0,0-15.0989.0384-24.3879-9.2505-9.289-9.289-9.2505-24.3879-9.2505-24.3879,0,0,15.0988-.0384,24.3878,9.2505Z"/>
    <path class="g" d="M249.9709,145.4369c-9.289,9.289-9.2506,24.3879-9.2506,24.3879,0,0,15.0989.0384,24.3879-9.2505,9.289-9.289,9.2505-24.3879,9.2505-24.3879,0,0-15.0988-.0384-24.3878,9.2505Z"/>
    <path class="f" d="M231.8078,178.633c9.289,9.289,9.2506,24.3879,9.2506,24.3879,0,0-15.0989.0384-24.3879-9.2506-9.289-9.289-9.2505-24.3878-9.2505-24.3878,0,0,15.0988-.0385,24.3878,9.2505Z"/>
    <path class="g" d="M249.9709,178.633c-9.289,9.289-9.2506,24.3879-9.2506,24.3879,0,0,15.0989.0384,24.3879-9.2506,9.289-9.289,9.2505-24.3878,9.2505-24.3878,0,0-15.0988-.0385-24.3878,9.2505Z"/>
    <path class="f" d="M231.8078,211.8291c9.289,9.289,9.2506,24.3878,9.2506,24.3878,0,0-15.0989.0385-24.3879-9.2505-9.289-9.289-9.2505-24.3879-9.2505-24.3879,0,0,15.0988-.0384,24.3878,9.2506Z"/>
    <path class="g" d="M249.9709,211.8291c-9.289,9.289-9.2506,24.3878-9.2506,24.3878,0,0,15.0989.0385,24.3879-9.2505,9.289-9.289,9.2505-24.3879,9.2505-24.3879,0,0-15.0988-.0384-24.3878,9.2506Z"/>
    <circle class="e" cx="220.1418" cy="58.6043" r="8.299" transform="translate(-6.5448 36.0195) rotate(-9.2175)"/>
    <circle class="e" cx="261.6369" cy="58.6043" r="8.299" transform="translate(-6.009 42.6662) rotate(-9.2175)"/>
    <circle class="e" cx="240.8894" cy="50.3053" r="8.299" transform="translate(27.623 173.0886) rotate(-41.7259)"/>
    <line class="c" x1="240.8893" y1="245.3322" x2="240.8893" y2="89.7256"/>
    <circle class="d" cx="240.8894" cy="81.4266" r="16.598" transform="translate(-1.6109 4.9308) rotate(-1.1689)"/>
  </g>
</svg>