<?xml version="1.0" encoding="UTF-8"?>
<svg id="a" xmlns="http://www.w3.org/2000/svg" version="1.1" viewBox="0 0 480 270">
  <!-- Generator: Adobe Illustrator 30.0.0, SVG Export Plug-In . SVG Version: 2.1.1 Build 123)  -->
  <defs>
    <style>
      .st0, .st1 {
        fill: none;
      }

      .st2 {
        fill: #f2a29b;
      }

      .st3 {
        fill: #0f3d59;
      }

      .st1 {
        stroke: #0f3d59;
        stroke-linecap: round;
        stroke-linejoin: round;
        stroke-width: 7.4px;
      }

      .st4 {
        fill: #f2a39b;
      }
    </style>
  </defs>
  <rect class="st0" width="480" height="270"/>
  <g>
    <path class="st4" d="M233,107.8c8.1,8.1,8.1,21.1,8.1,21.1,0,0-13.1,0-21.1-8.1s-8.1-21.1-8.1-21.1c0,0,13.1,0,21.1,8.1Z"/>
    <path class="st4" d="M248.8,107.8c-8.1,8.1-8.1,21.1-8.1,21.1,0,0,13.1,0,21.1-8.1,8.1-8.1,8.1-21.1,8.1-21.1,0,0-13.1,0-21.1,8.1Z"/>
    <path class="st4" d="M233,136.5c8.1,8.1,8.1,21.1,8.1,21.1,0,0-13.1,0-21.1-8.1-8.1-8.1-8.1-21.1-8.1-21.1,0,0,13.1,0,21.1,8.1Z"/>
    <path class="st4" d="M248.8,136.5c-8.1,8.1-8.1,21.1-8.1,21.1,0,0,13.1,0,21.1-8.1,8.1-8.1,8.1-21.1,8.1-21.1,0,0-13.1,0-21.1,8.1Z"/>
    <path class="st4" d="M233,165.3c8.1,8.1,8.1,21.1,8.1,21.1,0,0-13.1,0-21.1-8.1s-8.1-21.1-8.1-21.1c0,0,13.1,0,21.1,8.1Z"/>
    <path class="st4" d="M248.8,165.3c-8.1,8.1-8.1,21.1-8.1,21.1,0,0,13.1,0,21.1-8.1,8.1-8.1,8.1-21.1,8.1-21.1,0,0-13.1,0-21.1,8.1Z"/>
    <path class="st4" d="M233,194c8.1,8.1,8.1,21.1,8.1,21.1,0,0-13.1,0-21.1-8.1-8.1-8.1-8.1-21.1-8.1-21.1,0,0,13.1,0,21.1,8.1Z"/>
    <path class="st4" d="M248.8,194c-8.1,8.1-8.1,21.1-8.1,21.1,0,0,13.1,0,21.1-8.1,8.1-8.1,8.1-21.1,8.1-21.1,0,0-13.1,0-21.1,8.1Z"/>
    <circle class="st3" cx="222.9" cy="61.4" r="7.2"/>
    <circle class="st3" cx="258.8" cy="61.4" r="7.2" transform="translate(153.5 305.6) rotate(-80)"/>
    <circle class="st3" cx="240.9" cy="54.2" r="7.2"/>
    <line class="st1" x1="240.9" y1="223" x2="240.9" y2="88.3"/>
    <circle class="st2" cx="240.9" cy="81" r="14.4"/>
  </g>
</svg>