<?xml version="1.0" encoding="UTF-8"?>
<svg id="a" xmlns="http://www.w3.org/2000/svg" version="1.1" viewBox="0 0 480 270">
  <!-- Generator: Adobe Illustrator 30.0.0, SVG Export Plug-In . SVG Version: 2.1.1 Build 123)  -->
  <defs>
    <style>
      .st0 {
        fill: none;
      }

      .st1 {
        fill: #f4a126;
      }

      .st2 {
        fill: #0f3d59;
      }
    </style>
  </defs>
  <rect class="st0" width="480" height="270"/>
  <path class="st1" d="M285.6,142c0,28.5-13.4,54-25.7,71.5-9.4,13.4-30.4,13.4-39.8,0-12.3-17.4-25.7-43-25.7-71.5,0-52.5,45.6-95,45.6-95,0,0,45.6,42.6,45.6,95Z"/>
  <path class="st2" d="M240,208.3c-1.4,0-2.6-1.2-2.6-2.6v-125.1c0-1.4,1.2-2.6,2.6-2.6s2.6,1.2,2.6,2.6v125.1c0,1.4-1.2,2.6-2.6,2.6Z"/>
  <path class="st2" d="M240,127.8c-.7,0-1.3-.3-1.8-.8l-26.1-26.1c-1-1-1-2.7,0-3.7s2.7-1,3.7,0l24.2,24.2,24.2-24.2c1-1,2.7-1,3.7,0s1,2.7,0,3.7l-26.1,26.1c-.5.5-1.2.8-1.8.8Z"/>
  <path class="st2" d="M240,159.1c-.7,0-1.3-.3-1.8-.8l-26.1-26.1c-1-1-1-2.7,0-3.7s2.7-1,3.7,0l24.2,24.2,24.2-24.2c1-1,2.7-1,3.7,0s1,2.7,0,3.7l-26.1,26.1c-.5.5-1.2.8-1.8.8Z"/>
  <path class="st2" d="M240,190.4c-.7,0-1.4-.3-1.8-.8l-26.1-26.1c-1-1-1-2.7,0-3.7s2.7-1,3.7,0l24.2,24.2,24.2-24.2c1-1,2.7-1,3.7,0s1,2.7,0,3.7l-26.1,26.1c-.5.5-1.2.8-1.8.8Z"/>
</svg>