<?xml version="1.0" encoding="UTF-8"?>
<svg id="a" data-name="Layer 1" xmlns="http://www.w3.org/2000/svg" width="480" height="270" viewBox="0 0 480 270">
  <defs>
    <style>
      .b, .c {
        fill: none;
      }

      .c {
        stroke: #e47725;
        stroke-linecap: round;
        stroke-miterlimit: 10;
        stroke-width: 4.4669px;
      }

      .d {
        fill: #0e3e5a;
      }

      .e {
        fill: #e47725;
      }

      .f {
        fill: #f2a39b;
      }
    </style>
  </defs>
  <g>
    <g>
      <path class="e" d="M221.0194,146.3864c19.6855,19.6855,19.6041,51.6837,19.6041,51.6837,0,0-31.9982.0816-51.6839-19.6041-19.6856-19.6857-19.6041-51.6839-19.6041-51.6839,0,0,31.9982-.0814,51.6839,19.6043Z"/>
      <path class="e" d="M259.5112,146.3864c-19.6857,19.6855-19.6041,51.6837-19.6041,51.6837,0,0,31.998.0816,51.6837-19.6041,19.6857-19.6857,19.6043-51.6839,19.6043-51.6839,0,0-31.9982-.0814-51.6839,19.6043Z"/>
    </g>
    <g>
      <line class="c" x1="240.2653" y1="221.8328" x2="240.2653" y2="122.8217"/>
      <circle class="f" cx="240.2653" cy="91.1381" r="43.8619"/>
      <circle class="d" cx="240.2653" cy="91.1381" r="11.8813"/>
    </g>
  </g>
  <rect class="b" width="480" height="270"/>
</svg>