<?xml version="1.0" encoding="UTF-8"?>
<svg id="a" xmlns="http://www.w3.org/2000/svg" width="480" height="270" viewBox="0 0 480 270">
  <defs>
    <style>
      .b {
        fill: none;
      }

      .c {
        fill: #f4a126;
      }

      .d {
        fill: #0f3d59;
      }
    </style>
  </defs>
  <rect class="b" width="480" height="270"/>
  <rect class="c" x="199.5" y="53" width="80" height="162" rx="40" ry="40"/>
  <path class="d" d="M230.7457,84.7041c8.9543,8.9543,8.9172,23.5091,8.9172,23.5091,0,0-14.5548.037-23.5091-8.9173s-8.9173-23.5091-8.9173-23.5091c0,0,14.5549-.037,23.5092,8.9173Z"/>
  <path class="d" d="M248.2543,84.7041c-8.9543,8.9543-8.9173,23.5091-8.9173,23.5091,0,0,14.5549.037,23.5092-8.9173s8.9172-23.5091,8.9172-23.5091c0,0-14.5548-.037-23.5091,8.9173Z"/>
  <path class="d" d="M230.7457,116.7041c8.9543,8.9543,8.9172,23.5091,8.9172,23.5091,0,0-14.5548.037-23.5091-8.9173s-8.9173-23.5091-8.9173-23.5091c0,0,14.5549-.037,23.5092,8.9173Z"/>
  <path class="d" d="M248.2543,116.7041c-8.9543,8.9543-8.9173,23.5091-8.9173,23.5091,0,0,14.5549.037,23.5092-8.9173s8.9172-23.5091,8.9172-23.5091c0,0-14.5548-.037-23.5091,8.9173Z"/>
  <path class="d" d="M230.7457,148.7041c8.9543,8.9543,8.9172,23.5091,8.9172,23.5091,0,0-14.5548.037-23.5091-8.9173-8.9543-8.9543-8.9173-23.5091-8.9173-23.5091,0,0,14.5549-.037,23.5092,8.9173Z"/>
  <path class="d" d="M248.2543,148.7041c-8.9543,8.9543-8.9173,23.5091-8.9173,23.5091,0,0,14.5549.037,23.5092-8.9173,8.9543-8.9543,8.9172-23.5091,8.9172-23.5091,0,0-14.5548-.037-23.5091,8.9173Z"/>
  <path class="d" d="M230.7457,180.7041c8.9543,8.9543,8.9172,23.5091,8.9172,23.5091,0,0-14.5548.037-23.5091-8.9173s-8.9173-23.5091-8.9173-23.5091c0,0,14.5549-.037,23.5092,8.9173Z"/>
  <path class="d" d="M248.2543,180.7041c-8.9543,8.9543-8.9173,23.5091-8.9173,23.5091,0,0,14.5549.037,23.5092-8.9173s8.9172-23.5091,8.9172-23.5091c0,0-14.5548-.037-23.5091,8.9173Z"/>
  <circle class="d" cx="239.5" cy="71" r="8"/>
</svg>