<?xml version="1.0" encoding="UTF-8"?>
<svg id="a" data-name="Layer 1" xmlns="http://www.w3.org/2000/svg" width="480" height="270" viewBox="0 0 480 270">
  <defs>
    <style>
      .b {
        fill: none;
      }

      .c {
        fill: #f2a29b;
      }

      .d {
        fill: #0f3d59;
      }
    </style>
  </defs>
  <rect class="b" width="480" height="270"/>
  <g>
    <path class="d" d="M239.007,223.964c-1.6451,0-2.979-1.3339-2.979-2.979V63.7068c0-1.6451,1.3339-2.979,2.979-2.979s2.979,1.3339,2.979,2.979v157.2782c0,1.6451-1.3339,2.979-2.979,2.979Z"/>
    <path class="d" d="M239.007,122.8527c-.7899,0-1.5477-.3142-2.1066-.873l-32.7658-32.7664c-1.1629-1.1629-1.1629-3.0491.0006-4.2126,1.1629-1.1629,3.0485-1.1635,4.2126.0006l30.6592,30.6598,30.6598-30.6598c1.1617-1.1641,3.0503-1.1635,4.212-.0006,1.1641,1.1635,1.1641,3.0497,0,4.2126l-32.7652,32.7664c-.5589.5589-1.3167.873-2.1066.873Z"/>
    <path class="d" d="M239.007,162.1716c-.7626,0-1.5246-.291-2.106-.873l-32.7658-32.7658c-1.1635-1.1629-1.1635-3.0491,0-4.212,1.1629-1.1641,3.0491-1.1641,4.212,0l30.6598,30.6598,30.6598-30.6598c1.1617-1.1641,3.0503-1.1641,4.212,0,1.1641,1.1629,1.1641,3.0491,0,4.212l-32.7658,32.7658c-.5814.582-1.3434.873-2.106.873Z"/>
    <path class="d" d="M239.007,201.4906c-.7626,0-1.5246-.291-2.106-.873l-32.7658-32.7658c-1.1635-1.1629-1.1635-3.0491,0-4.212,1.1629-1.1641,3.0491-1.1641,4.212,0l30.6598,30.6598,30.6598-30.6598c1.1617-1.1641,3.0503-1.1641,4.212,0,1.1641,1.1629,1.1641,3.0491,0,4.212l-32.7658,32.7658c-.5814.582-1.3434.873-2.106.873Z"/>
    <circle class="c" cx="239.0071" cy="62.9125" r="13.9008" transform="translate(-8.126 60.1546) rotate(-14.1078)"/>
    <g>
      <circle class="c" cx="272.7661" cy="87.7354" r="13.9008"/>
      <circle class="c" cx="205.248" cy="87.7354" r="13.9008"/>
    </g>
    <g>
      <circle class="c" cx="273.759" cy="125.4661" r="13.9008"/>
      <circle class="c" cx="206.2409" cy="125.4661" r="13.9008"/>
    </g>
    <g>
      <circle class="c" cx="274.7519" cy="163.1968" r="13.9008" transform="translate(-21.6739 43.8087) rotate(-8.7719)"/>
      <circle class="c" cx="207.2338" cy="163.1968" r="13.9008" transform="translate(-23.4654 35.3025) rotate(-9.2175)"/>
    </g>
  </g>
</svg>