<?xml version="1.0" encoding="UTF-8"?>
<svg id="a" xmlns="http://www.w3.org/2000/svg" version="1.1" viewBox="0 0 480 270">
  <!-- Generator: Adobe Illustrator 30.0.0, SVG Export Plug-In . SVG Version: 2.1.1 Build 123)  -->
  <defs>
    <style>
      .st0 {
        fill: none;
      }

      .st1 {
        fill: #a2a647;
      }

      .st2 {
        fill: #0f3d59;
      }
    </style>
  </defs>
  <rect class="st0" width="480" height="270"/>
  <g>
    <g>
      <path class="st1" d="M225.2,126.3c15.1,15.1,15,39.6,15,39.6,0,0-24.5,0-39.6-15-15.1-15.1-15-39.6-15-39.6,0,0,24.5,0,39.6,15h0Z"/>
      <path class="st1" d="M254.8,126.3c-15.1,15.1-15,39.6-15,39.6,0,0,24.5,0,39.6-15s15-39.6,15-39.6c0,0-24.5,0-39.6,15h0Z"/>
    </g>
    <g>
      <path class="st1" d="M225.2,174c15.1,15.1,15,39.6,15,39.6,0,0-24.5,0-39.6-15-15.1-15.1-15-39.6-15-39.6,0,0,24.5,0,39.6,15h0Z"/>
      <path class="st1" d="M254.8,174c-15.1,15.1-15,39.6-15,39.6,0,0,24.5,0,39.6-15,15.1-15.1,15-39.6,15-39.6,0,0-24.5,0-39.6,15h0Z"/>
    </g>
    <g>
      <rect class="st1" x="193.6" y="62.6" width="92.8" height="7.7"/>
      <rect class="st1" x="193.6" y="49.7" width="7.7" height="16.7"/>
      <rect class="st1" x="214.9" y="49.7" width="7.7" height="16.7"/>
      <rect class="st1" x="236.1" y="49.7" width="7.7" height="16.7"/>
      <rect class="st1" x="257.4" y="49.7" width="7.7" height="16.7"/>
      <rect class="st1" x="278.6" y="49.7" width="7.7" height="16.7"/>
    </g>
    <path class="st2" d="M240,221.7c-1.1,0-1.9-.9-1.9-1.9v-97.9c0-1.1.9-1.9,1.9-1.9s1.9.9,1.9,1.9v97.9c0,1.1-.9,1.9-1.9,1.9Z"/>
    <path class="st1" d="M193.6,75.5c0,25.6,20.8,46.4,46.4,46.4s46.4-20.8,46.4-46.4h-92.8,0Z"/>
    <path class="st2" d="M240,112.8c-17.5,0-32.2-12.1-36.3-28.3h72.5c-4,16.3-18.8,28.3-36.3,28.3h0Z"/>
  </g>
</svg>