<?xml version="1.0" encoding="UTF-8"?>
<svg id="a" data-name="Layer 1" xmlns="http://www.w3.org/2000/svg" width="480" height="270" viewBox="0 0 480 270">
  <defs>
    <style>
      .b {
        fill: none;
      }

      .c {
        fill: #0f3d59;
      }

      .d {
        fill: #fadedc;
      }
    </style>
  </defs>
  <rect class="b" width="480" height="270"/>
  <g>
    <g>
      <path class="d" d="M225.2435,126.3113c15.0935,15.0936,15.0311,39.6277,15.0311,39.6277,0,0-24.534.0624-39.6277-15.0312-15.0935-15.0936-15.0311-39.6275-15.0311-39.6275,0,0,24.534-.0625,39.6277,15.0311Z"/>
      <path class="d" d="M254.7564,126.3113c-15.0936,15.0936-15.0311,39.6277-15.0311,39.6277,0,0,24.5339.0624,39.6275-15.0312,15.0936-15.0936,15.0312-39.6275,15.0312-39.6275,0,0-24.534-.0625-39.6277,15.0311Z"/>
    </g>
    <g>
      <path class="d" d="M225.2435,173.9791c15.0935,15.0936,15.0311,39.6277,15.0311,39.6277,0,0-24.534.0624-39.6277-15.0312-15.0935-15.0935-15.0311-39.6275-15.0311-39.6275,0,0,24.534-.0625,39.6277,15.0311Z"/>
      <path class="d" d="M254.7564,173.9791c-15.0936,15.0936-15.0311,39.6277-15.0311,39.6277,0,0,24.5339.0624,39.6275-15.0312,15.0936-15.0935,15.0312-39.6275,15.0312-39.6275,0,0-24.534-.0625-39.6277,15.0311Z"/>
    </g>
    <g>
      <rect class="d" x="193.6204" y="62.5987" width="92.759" height="7.7299"/>
      <rect class="d" x="193.6204" y="49.7155" width="7.73" height="16.7481"/>
      <rect class="d" x="214.8778" y="49.7155" width="7.7299" height="16.7481"/>
      <rect class="d" x="236.135" y="49.7155" width="7.7299" height="16.7481"/>
      <rect class="d" x="257.3923" y="49.7155" width="7.7299" height="16.7481"/>
      <rect class="d" x="278.6496" y="49.7155" width="7.7299" height="16.7481"/>
    </g>
    <path class="c" d="M240,221.7052c-1.0675,0-1.9325-.8644-1.9325-1.9319v-97.912c0-1.0675.865-1.9325,1.9325-1.9325s1.9319.865,1.9319,1.9325v97.912c0,1.0675-.8644,1.9319-1.9319,1.9319Z"/>
    <path class="d" d="M193.6204,75.4819c0,25.6146,20.7648,46.3795,46.3796,46.3795s46.3794-20.7648,46.3794-46.3795h-92.759Z"/>
    <path class="c" d="M240,112.8432c-17.4931,0-32.2162-12.0843-36.261-28.3431h72.522c-4.0448,16.2588-18.7681,28.3431-36.261,28.3431Z"/>
  </g>
</svg>