<?xml version="1.0" encoding="UTF-8"?>
<svg id="a" data-name="Layer 1" xmlns="http://www.w3.org/2000/svg" width="480" height="270" viewBox="0 0 480 270">
  <defs>
    <style>
      .b {
        fill: none;
      }

      .c {
        fill: #f4a126;
      }

      .d {
        fill: #0f3d59;
      }
    </style>
  </defs>
  <rect class="b" width="480" height="270"/>
  <path class="c" d="M280,141.2125c0,24.9736-11.7757,47.3815-22.5486,62.656-8.2614,11.7135-26.6413,11.7135-34.9027,0-10.7729-15.2745-22.5487-37.6824-22.5487-62.656,0-46.0274,40-83.34,40-83.34,0,0,40,37.3126,40,83.34Z"/>
  <path class="d" d="M239.9998,199.2631c-1.2622,0-2.2856-1.0234-2.2856-2.2861v-109.7139c0-1.2622,1.0234-2.2856,2.2856-2.2856s2.2856,1.0234,2.2856,2.2856v109.7139c0,1.2627-1.0234,2.2861-2.2856,2.2861Z"/>
  <path class="d" d="M239.9998,128.7294c-.585,0-1.1699-.2231-1.6162-.6694l-22.8569-22.8569c-.8926-.8926-.8926-2.3398,0-3.2324s2.3398-.8926,3.2324,0l21.2407,21.2407,21.2407-21.2407c.8926-.8926,2.3398-.8926,3.2324,0s.8926,2.3398,0,3.2324l-22.8564,22.8569c-.4463.4463-1.0312.6694-1.6167.6694Z"/>
  <path class="d" d="M239.9998,156.1586c-.585,0-1.1699-.2236-1.6162-.6699l-22.8569-22.8569c-.8926-.8926-.8926-2.3398,0-3.2324s2.3398-.8926,3.2324,0l21.2407,21.2407,21.2407-21.2407c.8926-.8926,2.3398-.8926,3.2324,0s.8926,2.3398,0,3.2324l-22.8564,22.8569c-.4463.4463-1.0312.6699-1.6167.6699Z"/>
  <path class="d" d="M239.9998,183.5873c-.6064,0-1.1875-.2412-1.6162-.6699l-22.8569-22.8574c-.8926-.8926-.8926-2.3398,0-3.2324s2.3398-.8926,3.2324,0l21.2407,21.2412,21.2407-21.2412c.8926-.8926,2.3398-.8926,3.2324,0s.8926,2.3398,0,3.2324l-22.8564,22.8574c-.4287.4287-1.0107.6699-1.6167.6699Z"/>
</svg>