<?xml version="1.0" encoding="UTF-8"?>
<svg id="a" data-name="Layer 1" xmlns="http://www.w3.org/2000/svg" width="480" height="270" viewBox="0 0 480 270">
  <defs>
    <style>
      .b {
        fill: none;
      }

      .c {
        fill: #0f3d59;
      }
    </style>
  </defs>
  <rect class="b" width="480" height="270"/>
  <g>
    <path class="c" d="M298.3544,163.0271h-130.9555c-.9312,0-1.792-.4972-2.258-1.3044-.4652-.8057-.4652-1.8,0-2.6057l65.4778-113.4119c.466-.8065,1.3268-1.3036,2.258-1.3036s1.792.4972,2.2572,1.3036l65.4778,113.4119c.4668.8057.4668,1.8,0,2.6057-.4652.8073-1.3252,1.3044-2.2572,1.3044ZM171.9149,157.8125h121.9236l-60.9618-105.5893-60.9618,105.5893Z"/>
    <path class="c" d="M298.3544,225.5986h-130.9555c-.9312,0-1.792-.4972-2.258-1.3044-.4652-.8057-.4652-1.8,0-2.6057l65.4778-113.4119c.466-.8065,1.3268-1.3036,2.258-1.3036s1.792.4972,2.2572,1.3036l65.4778,113.4119c.4668.8057.4668,1.8,0,2.6057-.4652.8073-1.3252,1.3044-2.2572,1.3044ZM171.9149,220.3841h121.9236l-60.9618-105.5893-60.9618,105.5893Z"/>
  </g>
</svg>