<?xml version="1.0" encoding="UTF-8"?>
<svg id="a" data-name="Layer 1" xmlns="http://www.w3.org/2000/svg" width="480" height="270" viewBox="0 0 480 270">
  <defs>
    <style>
      .b, .c {
        fill: none;
      }

      .c {
        stroke: #a2a647;
        stroke-miterlimit: 10;
        stroke-width: 5.3694px;
      }

      .d {
        fill: #0c3d59;
      }

      .e {
        fill: #a2a647;
      }
    </style>
  </defs>
  <rect class="b" width="480" height="270"/>
  <g>
    <ellipse class="e" cx="240.422" cy="76.6396" rx="24.3368" ry="24.3171" transform="translate(-.0879 .2762) rotate(-.0658)"/>
    <ellipse class="e" cx="240.422" cy="193.7225" rx="24.3368" ry="24.3171" transform="translate(-.2582 .3209) rotate(-.0764)"/>
    <ellipse class="e" cx="299.0106" cy="135.1811" rx="24.3368" ry="24.3171"/>
    <ellipse class="e" cx="181.8334" cy="135.1811" rx="24.3368" ry="24.3171"/>
    <ellipse class="e" cx="281.8504" cy="93.7861" rx="24.3368" ry="24.3172"/>
    <path class="e" d="M216.2023,193.7709c9.5041-9.4964,9.5041-24.8933,0-34.3896-9.5039-9.4966-24.9132-9.4966-34.4173,0-9.5041,9.4964-9.5041,24.8933,0,34.3896,9.5041,9.4966,24.9134,9.4966,34.4173,0Z"/>
    <ellipse class="e" cx="281.8504" cy="176.5761" rx="24.3367" ry="24.3171"/>
    <ellipse class="e" cx="198.9936" cy="93.7861" rx="24.3368" ry="24.3172"/>
    <ellipse class="d" cx="240.4221" cy="135.1811" rx="51.8283" ry="51.7866"/>
    <ellipse class="c" cx="240.422" cy="135.181" rx="31.5477" ry="31.5223"/>
    <path class="d" d="M212.1012,54.2457c-.9324-2.3061-3.5591-3.42-5.8668-2.4883-2.3079.9317-3.4227,3.5562-2.4904,5.8622s3.5591,3.42,5.867,2.4883c2.3077-.9315,3.4227-3.5562,2.4902-5.8622Z"/>
    <path class="d" d="M276.256,212.9065c-.9324-2.306-3.5591-3.42-5.867-2.4883-2.3077.9315-3.4227,3.5562-2.4904,5.8622.9326,2.3058,3.5593,3.42,5.867,2.4883,2.3079-.9317,3.4227-3.5562,2.4904-5.8622Z"/>
    <path class="d" d="M321.0825,107.3869c2.3079-.9317,3.4227-3.5564,2.4904-5.8624-.9324-2.3058-3.5591-3.42-5.867-2.4883-2.3077.9317-3.4227,3.5564-2.4904,5.8622.9326,2.306,3.5593,3.42,5.867,2.4885Z"/>
    <path class="d" d="M162.2941,171.4899c2.3077-.9317,3.4227-3.5564,2.4902-5.8622-.9323-2.306-3.5591-3.42-5.8668-2.4885-2.3079.9317-3.4227,3.5563-2.4904,5.8624.9324,2.3058,3.5591,3.42,5.867,2.4883Z"/>
    <path class="d" d="M277.6066,58.2637c.9726-2.2894-.0965-4.9329-2.3876-5.9047s-4.937.0963-5.9094,2.3855c-.9726,2.2895.0963,4.9329,2.3876,5.9048,2.2911.9718,4.9368-.0963,5.9094-2.3856Z"/>
    <path class="d" d="M210.6904,215.7816c.9726-2.2895-.0963-4.933-2.3876-5.9048-2.2911-.9718-4.937.0963-5.9094,2.3855-.9726,2.2895.0963,4.933,2.3876,5.9048,2.2911.9718,4.9369-.0963,5.9094-2.3855Z"/>
    <path class="d" d="M317.0614,172.8395c2.2911.9718,4.937-.0963,5.9096-2.3857.9724-2.2892-.0965-4.933-2.3876-5.9048s-4.937.0963-5.9096,2.3857c-.9724,2.2893.0965,4.933,2.3876,5.9048Z"/>
    <path class="d" d="M159.4167,105.9771c2.2911.9718,4.937-.0963,5.9094-2.3858.9726-2.2892-.0963-4.9329-2.3874-5.9047-2.2913-.9718-4.937.0963-5.9096,2.3857-.9726,2.2892.0965,4.933,2.3876,5.9048Z"/>
  </g>
</svg>